<?xml version="1.0" encoding="UTF-8" standalone="no"?>
<!-- Created with Inkscape (http://www.inkscape.org/) -->

<svg
   xmlns:dc="http://purl.org/dc/elements/1.1/"
   xmlns:cc="http://creativecommons.org/ns#"
   xmlns:rdf="http://www.w3.org/1999/02/22-rdf-syntax-ns#"
   xmlns:svg="http://www.w3.org/2000/svg"
   xmlns="http://www.w3.org/2000/svg"
   xmlns:sodipodi="http://sodipodi.sourceforge.net/DTD/sodipodi-0.dtd"
   xmlns:inkscape="http://www.inkscape.org/namespaces/inkscape"
   width="1052.3622"
   height="744.09448"
   id="svg2985"
   version="1.1"
   inkscape:version="0.92.5 (2060ec1f9f, 2020-04-08)"
   sodipodi:docname="DecisionActions.svg">
  <sodipodi:namedview
     id="base"
     pagecolor="#ffffff"
     bordercolor="#666666"
     borderopacity="1.0"
     inkscape:pageopacity="0.0"
     inkscape:pageshadow="2"
     inkscape:zoom="2.2685858"
     inkscape:cx="379.66516"
     inkscape:cy="513.47286"
     inkscape:document-units="px"
     inkscape:current-layer="layer1"
     showgrid="false"
     inkscape:window-width="3840"
     inkscape:window-height="2090"
     inkscape:window-x="0"
     inkscape:window-y="34"
     inkscape:window-maximized="1"
     showguides="true">
    <sodipodi:guide
       inkscape:locked="false"
       id="guide4648"
       orientation="0,744.09448"
       position="0,0" />
    <sodipodi:guide
       inkscape:locked="false"
       id="guide4650"
       orientation="-1052.3622,0"
       position="744.09448,0" />
    <sodipodi:guide
       inkscape:locked="false"
       id="guide4652"
       orientation="0,-744.09448"
       position="115.71429,827.14286" />
    <sodipodi:guide
       inkscape:locked="false"
       id="guide4654"
       orientation="1052.3622,0"
       position="82.857143,1047.1429" />
  </sodipodi:namedview>
  <defs
     id="defs2987">
    <filter
       inkscape:menu-tooltip="Smooth the outside of shapes and pictures without altering their contents"
       inkscape:menu="Morphology"
       inkscape:label="Drop shadow"
       id="filter3023"
       width="1.5"
       height="1.5"
       x="-0.25"
       y="-0.25"
       style="color-interpolation-filters:sRGB">
      <feGaussianBlur
         result="result1"
         stdDeviation="3"
         id="feGaussianBlur3025" />
      <feComposite
         result="result2"
         in="result1"
         k4="-1"
         k2="2"
         operator="arithmetic"
         in2="SourceGraphic"
         id="feComposite3027"
         k1="0"
         k3="0" />
      <feColorMatrix
         result="result3"
         values="0 0 0 0 0 0 1 0 0 0 0 0 1 0 0 0 0 0 8 -6 "
         id="feColorMatrix3029" />
      <feComposite
         operator="in"
         in="SourceGraphic"
         in2="result3"
         id="feComposite3031"
         result="fbSourceGraphic" />
      <feColorMatrix
         result="fbSourceGraphicAlpha"
         in="fbSourceGraphic"
         values="0 0 0 -1 0 0 0 0 -1 0 0 0 0 -1 0 0 0 0 1 0"
         id="feColorMatrix4215" />
      <feGaussianBlur
         id="feGaussianBlur4217"
         in="fbSourceGraphicAlpha"
         stdDeviation="3"
         result="blur" />
      <feColorMatrix
         id="feColorMatrix4219"
         result="bluralpha"
         type="matrix"
         values="1 0 0 0 0 0 1 0 0 0 0 0 1 0 0 0 0 0 0.5 0 " />
      <feOffset
         id="feOffset4221"
         in="bluralpha"
         dx="4"
         dy="4"
         result="offsetBlur" />
      <feMerge
         id="feMerge4223">
        <feMergeNode
           id="feMergeNode4225"
           in="offsetBlur" />
        <feMergeNode
           id="feMergeNode4227"
           in="fbSourceGraphic" />
      </feMerge>
    </filter>
    <filter
       id="filter3535"
       inkscape:label="Drop shadow"
       width="1.5"
       height="1.5"
       x="-0.25"
       y="-0.25">
      <feGaussianBlur
         id="feGaussianBlur3537"
         in="SourceAlpha"
         stdDeviation="7"
         result="blur" />
      <feColorMatrix
         id="feColorMatrix3539"
         result="bluralpha"
         type="matrix"
         values="1 0 0 0 0 0 1 0 0 0 0 0 1 0 0 0 0 0 0.5 0 " />
      <feOffset
         id="feOffset3541"
         in="bluralpha"
         dx="4"
         dy="4"
         result="offsetBlur" />
      <feMerge
         id="feMerge3543"
         result="fbSourceGraphic">
        <feMergeNode
           id="feMergeNode3545"
           in="offsetBlur" />
        <feMergeNode
           id="feMergeNode3547"
           in="SourceGraphic" />
      </feMerge>
      <feColorMatrix
         result="fbSourceGraphicAlpha"
         in="fbSourceGraphic"
         values="0 0 0 -1 0 0 0 0 -1 0 0 0 0 -1 0 0 0 0 1 0"
         id="feColorMatrix3549" />
      <feGaussianBlur
         id="feGaussianBlur3551"
         in="fbSourceGraphicAlpha"
         stdDeviation="7"
         result="blur" />
      <feColorMatrix
         id="feColorMatrix3553"
         result="bluralpha"
         type="matrix"
         values="1 0 0 0 0 0 1 0 0 0 0 0 1 0 0 0 0 0 0.5 0 " />
      <feOffset
         id="feOffset3555"
         in="bluralpha"
         dx="4"
         dy="4"
         result="offsetBlur" />
      <feMerge
         id="feMerge3557">
        <feMergeNode
           id="feMergeNode3559"
           in="offsetBlur" />
        <feMergeNode
           id="feMergeNode3561"
           in="fbSourceGraphic" />
      </feMerge>
    </filter>
    <clipPath
       clipPathUnits="userSpaceOnUse"
       id="clipPath3139">
      <rect
         style="fill:#7b7bff;fill-opacity:1;fill-rule:nonzero;stroke:none"
         id="rect3141"
         width="433.63293"
         height="327.32538"
         x="151.24832"
         y="175.57265" />
    </clipPath>
    <clipPath
       clipPathUnits="userSpaceOnUse"
       id="clipPath3143">
      <rect
         style="fill:#7b7bff;fill-opacity:1;fill-rule:nonzero;stroke:none"
         id="rect3145"
         width="401.78183"
         height="297.11575"
         x="165.88434"
         y="263.02374" />
    </clipPath>
    <clipPath
       clipPathUnits="userSpaceOnUse"
       id="clipPath3147">
      <rect
         style="fill:#7b7bff;fill-opacity:1;fill-rule:nonzero;stroke:none"
         id="rect3149"
         width="462.55203"
         height="321.97427"
         x="-8.2894974"
         y="116.13422" />
    </clipPath>
    <clipPath
       clipPathUnits="userSpaceOnUse"
       id="clipPath3151">
      <rect
         style="fill:#7b7bff;fill-opacity:1;fill-rule:nonzero;stroke:none"
         id="rect3153"
         width="343.18579"
         height="302.11987"
         x="263.58643"
         y="125.86242" />
    </clipPath>
    <clipPath
       clipPathUnits="userSpaceOnUse"
       id="clipPath3155">
      <rect
         style="fill:#7b7bff;fill-opacity:1;fill-rule:nonzero;stroke:none"
         id="rect3157"
         width="401.78183"
         height="297.11575"
         x="115.35516"
         y="216.94698" />
    </clipPath>
    <clipPath
       clipPathUnits="userSpaceOnUse"
       id="clipPath3159">
      <rect
         style="fill:#7b7bff;fill-opacity:1;fill-rule:nonzero;stroke:none"
         id="rect3161"
         width="350.05164"
         height="258.19131"
         x="311.01883"
         y="61.139042"
         transform="rotate(31.309078)" />
    </clipPath>
    <clipPath
       clipPathUnits="userSpaceOnUse"
       id="clipPath3163">
      <rect
         style="fill:#7b7bff;fill-opacity:1;fill-rule:nonzero;stroke:none"
         id="rect3165"
         width="312.12183"
         height="319.98102"
         x="37.742821"
         y="293.01974" />
    </clipPath>
    <clipPath
       clipPathUnits="userSpaceOnUse"
       id="clipPath3167">
      <rect
         style="fill:#7b7bff;fill-opacity:1;fill-rule:nonzero;stroke:none"
         id="rect3169"
         width="617.8009"
         height="284.065"
         x="93.985458"
         y="248.49191" />
    </clipPath>
    <clipPath
       clipPathUnits="userSpaceOnUse"
       id="clipPath3155-3">
      <rect
         style="fill:#7b7bff;fill-opacity:1;fill-rule:nonzero;stroke:none"
         id="rect3157-6"
         width="401.78183"
         height="297.11575"
         x="115.35516"
         y="216.94698" />
    </clipPath>
    <clipPath
       clipPathUnits="userSpaceOnUse"
       id="clipPath3155-3-5">
      <rect
         style="fill:#7b7bff;fill-opacity:1;fill-rule:nonzero;stroke:none"
         id="rect3157-6-3"
         width="401.78183"
         height="297.11575"
         x="115.35516"
         y="216.94698" />
    </clipPath>
    <clipPath
       clipPathUnits="userSpaceOnUse"
       id="clipPath3155-3-5-6">
      <rect
         style="fill:#7b7bff;fill-opacity:1;fill-rule:nonzero;stroke:none"
         id="rect3157-6-3-2"
         width="401.78183"
         height="297.11575"
         x="115.35516"
         y="216.94698" />
    </clipPath>
    <clipPath
       clipPathUnits="userSpaceOnUse"
       id="clipPath3155-3-5-6-1">
      <rect
         style="fill:#7b7bff;fill-opacity:1;fill-rule:nonzero;stroke:none"
         id="rect3157-6-3-2-2"
         width="401.78183"
         height="297.11575"
         x="115.35516"
         y="216.94698" />
    </clipPath>
  </defs>
  <metadata
     id="metadata2990">
    <rdf:RDF>
      <cc:Work
         rdf:about="">
        <dc:format>image/svg+xml</dc:format>
        <dc:type
           rdf:resource="http://purl.org/dc/dcmitype/StillImage" />
        <dc:title />
      </cc:Work>
    </rdf:RDF>
  </metadata>
  <g
     id="layer1"
     inkscape:groupmode="layer"
     inkscape:label="Layer 1"
     transform="translate(0,-308.2677)">
    <ellipse
       id="path3912"
       transform="matrix(0.26431408,0,0,0.28275277,410.03276,344.36192)"
       style="opacity:0.5;fill:#ff8000;fill-opacity:0.47058824;fill-rule:nonzero;stroke:#000000;stroke-width:3.00024128;stroke-linecap:round;stroke-linejoin:round;stroke-miterlimit:4;stroke-dasharray:none;stroke-dashoffset:0;stroke-opacity:1"
       clip-path="url(#clipPath3155)"
       cx="381.33258"
       cy="401.82394"
       rx="87.378197"
       ry="75.761444" />
    <ellipse
       id="path3912-7"
       transform="matrix(0.26431408,0,0,0.28275277,21.860747,510.8143)"
       style="opacity:0.5;fill:#ff8000;fill-opacity:0.47058824;fill-rule:nonzero;stroke:#000000;stroke-width:2.99950957;stroke-linecap:round;stroke-linejoin:round;stroke-miterlimit:4;stroke-dasharray:none;stroke-dashoffset:0;stroke-opacity:1"
       clip-path="url(#clipPath3155-3)"
       cx="381.33258"
       cy="401.82394"
       rx="87.378197"
       ry="75.761444" />
    <g
       id="g13701"
       transform="matrix(0.49,0,0,0.49,75.316137,405.54789)">
      <g
         word-spacing="normal"
         letter-spacing="normal"
         font-size-adjust="none"
         font-stretch="normal"
         font-weight="normal"
         font-variant="normal"
         font-style="normal"
         stroke-miterlimit="10.433"
         xml:space="preserve"
         transform="matrix(1.0629921,0,0,-1.0629921,-186.02362,789.27165)"
         id="content"
         style="font-style:normal;font-variant:normal;font-weight:normal;font-stretch:normal;letter-spacing:normal;word-spacing:normal;text-anchor:start;fill:none;fill-opacity:1;fill-rule:evenodd;stroke:#000000;stroke-linecap:butt;stroke-linejoin:miter;stroke-miterlimit:10.43299961;stroke-dasharray:none;stroke-dashoffset:0;stroke-opacity:1"><path
           id="path13698"
           d="m 484.27,424.98 0.01,0.04 0.01,0.04 0.01,0.04 0.01,0.04 0.01,0.03 0.01,0.04 0.01,0.04 0.01,0.03 0.01,0.03 0.01,0.03 0.01,0.03 0.01,0.03 v 0.03 l 0.01,0.03 0.01,0.03 v 0.02 l 0.01,0.03 0.01,0.02 0.01,0.05 0.01,0.04 0.01,0.05 0.01,0.03 0.01,0.04 v 0.03 l 0.01,0.03 v 0.03 l 0.01,0.03 v 0.02 l 0.01,0.02 v 0.02 0.02 0.02 l 0.01,0.02 v 0.01 0.02 0.03 0.02 0.03 c 0,1.11 -0.8,2.2 -2.34,2.2 -2.6,0 -3.19,-2.34 -3.55,-3.68 l -1.28,-5.19 c -0.61,-2.39 -1.55,-6.22 -2.1,-8.27 -0.25,-1.09 -1.79,-2.29 -1.95,-2.39 -0.55,-0.36 -1.73,-1.2 -3.39,-1.2 -2.94,0 -2.98,2.5 -2.98,3.64 0,3.05 1.54,6.92 2.93,10.52 0.5,1.29 0.66,1.64 0.66,2.48 0,2.89 -2.89,4.48 -5.64,4.48 -5.28,0 -7.77,-6.76 -7.77,-7.76 0,-0.7 0.75,-0.7 1.21,-0.7 0.59,0 0.93,0 1.14,0.65 1.64,5.53 4.37,6.02 5.12,6.02 0.36,0 0.86,0 0.86,-1.05 0,-1.14 -0.56,-2.44 -0.86,-3.23 -1.94,-4.99 -2.98,-7.82 -2.98,-10.36 0,-5.67 4.98,-6.49 7.92,-6.49 1.25,0 2.94,0.21 4.78,1.5 -1.39,-6.12 -5.12,-9.36 -8.56,-9.36 -0.66,0 -2.05,0.1 -3.05,0.69 1.6,0.66 2.39,2 2.39,3.34 0,1.8 -1.44,2.3 -2.44,2.3 -1.84,0 -3.59,-1.59 -3.59,-3.8 0,-2.53 2.64,-4.32 6.69,-4.32 5.72,0 12.3,3.82 13.84,10.01 z"
           inkscape:connector-curvature="0"
           style="fill:#000000;stroke-width:0" /></g>    </g>
    <g
       id="g13896"
       transform="matrix(0.49,0,0,0.49,421.75503,326.68417)">
      <g
         word-spacing="normal"
         letter-spacing="normal"
         font-size-adjust="none"
         font-stretch="normal"
         font-weight="normal"
         font-variant="normal"
         font-style="normal"
         stroke-miterlimit="10.433"
         xml:space="preserve"
         transform="matrix(1.0629921,0,0,-1.0629921,-186.02362,789.27165)"
         id="g13894"
         style="font-style:normal;font-variant:normal;font-weight:normal;font-stretch:normal;letter-spacing:normal;word-spacing:normal;text-anchor:start;fill:none;fill-opacity:1;fill-rule:evenodd;stroke:#000000;stroke-linecap:butt;stroke-linejoin:miter;stroke-miterlimit:10.43299961;stroke-dasharray:none;stroke-dashoffset:0;stroke-opacity:1"><path
           id="path13890"
           d="m 483.89,439.53 -1.3,1.25 c -1.48,-1.71 -3.23,-1.71 -3.78,-1.71 -1,0 -1.84,0.16 -3.98,0.86 -2.3,0.74 -3.24,0.85 -3.94,0.85 -0.89,0 -2.25,-0.21 -3.59,-1.55 -0.55,-0.55 -1.89,-2.05 -2.44,-2.59 l 1.3,-1.24 c 1.5,1.69 3.23,1.69 3.78,1.69 1,0 1.84,-0.16 3.98,-0.84 2.3,-0.75 3.25,-0.85 3.94,-0.85 0.91,0 2.25,0.19 3.59,1.53 0.55,0.55 1.89,2.05 2.44,2.6 z"
           inkscape:connector-curvature="0"
           style="fill:#000000;stroke-width:0" /><path
           id="path13892"
           d="m 484.27,424.98 0.01,0.04 0.01,0.04 0.01,0.04 0.01,0.04 0.01,0.03 0.01,0.04 0.01,0.04 0.01,0.03 0.01,0.03 0.01,0.03 0.01,0.03 0.01,0.03 v 0.03 l 0.01,0.03 0.01,0.03 v 0.02 l 0.01,0.03 0.01,0.02 0.01,0.05 0.01,0.04 0.01,0.05 0.01,0.03 0.01,0.04 v 0.03 l 0.01,0.03 v 0.03 l 0.01,0.03 v 0.02 l 0.01,0.02 v 0.02 0.02 0.02 l 0.01,0.02 v 0.01 0.02 0.03 0.02 0.03 c 0,1.11 -0.8,2.2 -2.34,2.2 -2.6,0 -3.19,-2.34 -3.55,-3.68 l -1.28,-5.19 c -0.61,-2.39 -1.55,-6.22 -2.1,-8.27 -0.25,-1.09 -1.79,-2.29 -1.95,-2.39 -0.55,-0.36 -1.73,-1.2 -3.39,-1.2 -2.94,0 -2.98,2.5 -2.98,3.64 0,3.05 1.54,6.92 2.93,10.52 0.5,1.29 0.66,1.64 0.66,2.48 0,2.89 -2.89,4.48 -5.64,4.48 -5.28,0 -7.77,-6.76 -7.77,-7.76 0,-0.7 0.75,-0.7 1.21,-0.7 0.59,0 0.93,0 1.14,0.65 1.64,5.53 4.37,6.02 5.12,6.02 0.36,0 0.86,0 0.86,-1.05 0,-1.14 -0.56,-2.44 -0.86,-3.23 -1.94,-4.99 -2.98,-7.82 -2.98,-10.36 0,-5.67 4.98,-6.49 7.92,-6.49 1.25,0 2.94,0.21 4.78,1.5 -1.39,-6.12 -5.12,-9.36 -8.56,-9.36 -0.66,0 -2.05,0.1 -3.05,0.69 1.6,0.66 2.39,2 2.39,3.34 0,1.8 -1.44,2.3 -2.44,2.3 -1.84,0 -3.59,-1.59 -3.59,-3.8 0,-2.53 2.64,-4.32 6.69,-4.32 5.72,0 12.3,3.82 13.84,10.01 z"
           inkscape:connector-curvature="0"
           style="fill:#000000;stroke-width:0" /></g>    </g>
    <path
       style="fill:none;stroke:#000000;stroke-width:1.45000005;stroke-linecap:butt;stroke-linejoin:miter;stroke-miterlimit:4;stroke-dasharray:none;stroke-opacity:1"
       d="M 142.06604,611.83875 290.16345,520.00108"
       id="path13908"
       inkscape:connector-curvature="0" />
    <path
       style="fill:none;stroke:#000000;stroke-width:1.42299783;stroke-linecap:butt;stroke-linejoin:miter;stroke-miterlimit:4;stroke-dasharray:none;stroke-opacity:1"
       d="M 130.83706,604.66346 202.96089,514.3233"
       id="path13908-9"
       inkscape:connector-curvature="0" />
    <path
       style="fill:none;stroke:#000000;stroke-width:1.24322295;stroke-linecap:butt;stroke-linejoin:miter;stroke-miterlimit:4;stroke-dasharray:none;stroke-opacity:1"
       d="M 145.44417,624.14225 255.79669,605.14687"
       id="path13908-9-6"
       inkscape:connector-curvature="0" />
    <path
       style="fill:none;stroke:#000000;stroke-width:1.45000005;stroke-linecap:butt;stroke-linejoin:miter;stroke-miterlimit:4;stroke-dasharray:none;stroke-opacity:1"
       d="M 528.18472,443.04131 658.84509,389.16118"
       id="path13908-0-6-9"
       inkscape:connector-curvature="0" />
    <path
       style="fill:none;stroke:#000000;stroke-width:1.45000005;stroke-linecap:butt;stroke-linejoin:miter;stroke-miterlimit:4;stroke-dasharray:none;stroke-opacity:1"
       d="m 517.7883,478.28358 51.42364,66.72096"
       id="path13908-0-6-9-0"
       inkscape:connector-curvature="0" />
    <path
       style="fill:none;stroke:#000000;stroke-width:1.45000005;stroke-linecap:butt;stroke-linejoin:miter;stroke-miterlimit:4;stroke-dasharray:none;stroke-opacity:1"
       d="m 533.52473,462.41177 112.31601,35.67928"
       id="path13908-0-6-9-0-8"
       inkscape:connector-curvature="0" />
    <rect
       style="opacity:0.5;fill:#ff8000;fill-opacity:0.47058824;stroke:#000000;stroke-width:0.81999999;stroke-miterlimit:4;stroke-dasharray:none;stroke-dashoffset:0;stroke-opacity:1"
       id="rect13352-3"
       width="44.86338"
       height="42.99321"
       x="289.92047"
       y="500.37521" />
    <path
       style="fill:none;stroke:#000000;stroke-width:1.66442156;stroke-linecap:butt;stroke-linejoin:miter;stroke-miterlimit:4;stroke-dasharray:none;stroke-opacity:1"
       d="M 334.78389,500.37522 452.06132,421.28028"
       id="path13908-0-6-1"
       inkscape:connector-curvature="0" />
    <path
       style="fill:none;stroke:#000000;stroke-width:1.60250485;stroke-linecap:butt;stroke-linejoin:miter;stroke-miterlimit:4;stroke-dasharray:none;stroke-opacity:1"
       d="M 335.41329,523.33078 489.38293,467.48375"
       id="path13908-0-6-1-4"
       inkscape:connector-curvature="0" />
    <path
       style="fill:none;stroke:#000000;stroke-width:1.24945068;stroke-linecap:butt;stroke-linejoin:miter;stroke-miterlimit:4;stroke-dasharray:none;stroke-opacity:1"
       d="m 334.78389,543.36844 124.65487,21.51558"
       id="path13908-0-6-4-9-8"
       inkscape:connector-curvature="0" />
    <g
       id="g14610"
       transform="matrix(0.5,0,0,0.5,500.20043,326.40348)">
      <g
         word-spacing="normal"
         letter-spacing="normal"
         font-size-adjust="none"
         font-stretch="normal"
         font-weight="normal"
         font-variant="normal"
         font-style="normal"
         stroke-miterlimit="10.433"
         xml:space="preserve"
         transform="matrix(1.0629921,0,0,-1.0629921,-186.02362,789.27165)"
         id="g14608"
         style="font-style:normal;font-variant:normal;font-weight:normal;font-stretch:normal;letter-spacing:normal;word-spacing:normal;text-anchor:start;fill:none;fill-opacity:1;fill-rule:evenodd;stroke:#000000;stroke-linecap:butt;stroke-linejoin:miter;stroke-miterlimit:10.43299961;stroke-dasharray:none;stroke-dashoffset:0;stroke-opacity:1"><path
           id="path14594"
           d="m 472.96,409 0.05,-0.19 0.06,-0.19 0.07,-0.18 0.08,-0.18 0.08,-0.17 0.09,-0.16 0.09,-0.16 0.1,-0.16 0.11,-0.15 0.11,-0.15 0.11,-0.14 0.13,-0.13 0.12,-0.13 0.14,-0.12 0.14,-0.12 0.14,-0.11 0.15,-0.11 0.15,-0.1 0.15,-0.09 0.16,-0.09 0.17,-0.08 0.17,-0.07 0.17,-0.07 0.18,-0.06 0.17,-0.06 0.19,-0.04 0.18,-0.05 0.19,-0.03 0.19,-0.02 0.2,-0.02 0.2,-0.01 0.19,-0.01 c 1.74,0 2.9,1.14 3.69,2.74 0.85,1.79 1.49,4.84 1.49,4.93 0,0.5 -0.44,0.5 -0.6,0.5 -0.5,0 -0.54,-0.2 -0.7,-0.9 -0.69,-2.78 -1.64,-6.17 -3.73,-6.17 -1.05,0 -1.54,0.65 -1.54,2.29 0,1.1 0.6,3.44 0.99,5.17 l 1.4,5.4 c 0.15,0.75 0.65,2.64 0.85,3.39 0.25,1.14 0.75,3.03 0.75,3.32 0,0.91 -0.7,1.35 -1.45,1.35 -0.25,0 -1.55,-0.05 -1.94,-1.74 -0.96,-3.64 -3.14,-12.36 -3.74,-15 -0.06,-0.2 -2.04,-4.18 -5.68,-4.18 -2.6,0 -3.1,2.25 -3.1,4.09 0,2.78 1.41,6.72 2.71,10.16 0.59,1.5 0.84,2.18 0.84,3.14 0,2.23 -1.59,4.07 -4.09,4.07 -4.74,0 -6.58,-7.21 -6.58,-7.67 0,-0.5 0.5,-0.5 0.61,-0.5 0.5,0 0.54,0.11 0.79,0.91 1.24,4.33 3.14,6.17 5.03,6.17 0.44,0 1.25,-0.05 1.25,-1.64 0,-1.2 -0.56,-2.64 -0.85,-3.39 -1.85,-4.94 -2.9,-8.02 -2.9,-10.45 0,-4.74 3.44,-5.99 6.15,-5.99 3.28,0 5.07,2.24 5.92,3.35 z"
           inkscape:connector-curvature="0"
           style="fill:#000000;stroke-width:0" /><path
           id="path14596"
           d="m 500.56,394.25 v 0.02 0.03 0.01 0.02 l -0.01,0.01 v 0.02 l -0.01,0.01 v 0.02 l -0.01,0.02 -0.01,0.02 -0.01,0.02 -0.02,0.03 -0.01,0.02 -0.02,0.03 -0.02,0.03 -0.03,0.03 -0.02,0.03 -0.03,0.04 -0.02,0.02 -0.02,0.02 -0.01,0.02 -0.02,0.02 -0.02,0.02 -0.02,0.03 -0.02,0.02 -0.02,0.02 -0.03,0.03 -0.02,0.02 -0.02,0.03 -0.03,0.03 -0.03,0.03 -0.02,0.03 -0.03,0.03 -0.03,0.03 -0.03,0.03 -0.04,0.03 -0.03,0.04 -0.03,0.03 -0.04,0.04 -0.03,0.03 -0.04,0.04 -0.04,0.04 c -6.22,6.28 -7.81,15.69 -7.81,23.31 0,8.67 1.89,17.35 8.01,23.56 0.64,0.61 0.64,0.71 0.64,0.86 0,0.35 -0.18,0.49 -0.48,0.49 -0.5,0 -4.99,-3.38 -7.92,-9.7 -2.55,-5.49 -3.14,-11.02 -3.14,-15.21 0,-3.89 0.54,-9.9 3.28,-15.54 2.98,-6.13 7.28,-9.36 7.78,-9.36 0.3,0 0.48,0.14 0.48,0.5 z"
           inkscape:connector-curvature="0"
           style="fill:#000000;stroke-width:0" /><path
           id="path14598"
           d="m 521.97,425.03 -0.08,0.17 -0.09,0.17 -0.09,0.16 -0.1,0.16 -0.1,0.16 -0.1,0.16 -0.1,0.15 -0.11,0.14 -0.12,0.15 -0.11,0.13 -0.12,0.14 -0.13,0.13 -0.13,0.12 -0.13,0.12 -0.13,0.11 -0.14,0.11 -0.15,0.11 -0.14,0.09 -0.15,0.1 -0.16,0.08 -0.16,0.08 -0.16,0.08 -0.17,0.06 -0.17,0.07 -0.18,0.05 -0.18,0.05 -0.18,0.04 -0.19,0.03 -0.2,0.03 -0.2,0.02 -0.2,0.01 h -0.2 l 0.04,-1.09 c 3.24,0 3.94,-4.08 3.94,-4.37 0,-0.32 -0.1,-0.61 -0.14,-0.86 l -2.5,-9.77 c -0.25,-0.89 -0.25,-0.98 -1,-1.84 -2.19,-2.74 -4.24,-3.53 -5.63,-3.53 -2.48,0 -3.18,2.73 -3.18,4.68 0,2.49 1.59,8.61 2.73,10.91 1.55,2.94 3.8,4.78 5.78,4.78 l -0.04,1.09 c -5.83,0 -12.01,-7.31 -12.01,-14.59 0,-4.69 2.74,-7.97 6.63,-7.97 0.98,0 3.48,0.21 6.47,3.74 0.41,-2.1 2.14,-3.74 4.53,-3.74 1.75,0 2.89,1.14 3.69,2.74 0.84,1.79 1.5,4.84 1.5,4.93 0,0.5 -0.46,0.5 -0.6,0.5 -0.5,0 -0.54,-0.2 -0.7,-0.9 -0.84,-3.24 -1.75,-6.17 -3.78,-6.17 -1.35,0 -1.5,1.29 -1.5,2.29 0,1.1 0.09,1.49 0.64,3.69 0.56,2.09 0.66,2.59 1.11,4.48 l 1.78,6.97 c 0.36,1.39 0.36,1.5 0.36,1.69 0,0.86 -0.61,1.36 -1.45,1.36 -1.19,0 -1.94,-1.11 -2.1,-2.2 z"
           inkscape:connector-curvature="0"
           style="fill:#000000;stroke-width:0" /><path
           id="path14600"
           d="m 539.78,406.25 v 0.3 l -0.01,0.3 -0.02,0.29 -0.03,0.28 -0.03,0.27 -0.04,0.26 -0.04,0.26 -0.05,0.24 -0.06,0.24 -0.06,0.23 -0.08,0.22 -0.07,0.21 -0.09,0.2 -0.08,0.19 -0.1,0.19 -0.1,0.17 -0.11,0.16 -0.11,0.16 -0.12,0.14 -0.12,0.13 -0.13,0.13 -0.13,0.11 -0.14,0.1 -0.14,0.1 -0.15,0.08 -0.16,0.07 -0.16,0.06 -0.16,0.05 -0.17,0.04 -0.17,0.03 -0.18,0.01 -0.18,0.01 c -1.64,0 -2.64,-1.25 -2.64,-2.64 0,-1.34 1,-2.64 2.64,-2.64 0.6,0 1.25,0.2 1.75,0.64 0.14,0.11 0.21,0.16 0.25,0.16 0.05,0 0.1,-0.05 0.1,-0.75 0,-3.69 -1.74,-6.68 -3.39,-8.32 -0.55,-0.54 -0.55,-0.65 -0.55,-0.79 0,-0.36 0.25,-0.55 0.5,-0.55 0.55,0 4.53,3.83 4.53,9.66 z"
           inkscape:connector-curvature="0"
           style="fill:#000000;stroke-width:0" /><path
           id="path14602"
           d="m 580.24,439.53 -1.29,1.25 c -1.49,-1.71 -3.24,-1.71 -3.79,-1.71 -1,0 -1.84,0.16 -3.98,0.86 -2.3,0.74 -3.23,0.85 -3.94,0.85 -0.89,0 -2.25,-0.21 -3.59,-1.55 -0.55,-0.55 -1.89,-2.05 -2.44,-2.59 l 1.3,-1.24 c 1.5,1.69 3.23,1.69 3.78,1.69 1,0 1.84,-0.16 3.98,-0.84 2.3,-0.75 3.25,-0.85 3.94,-0.85 0.91,0 2.25,0.19 3.59,1.53 0.55,0.55 1.9,2.05 2.44,2.6 z"
           inkscape:connector-curvature="0"
           style="fill:#000000;stroke-width:0" /><path
           id="path14604"
           d="m 580.5,424.98 0.01,0.04 0.01,0.04 0.01,0.04 0.01,0.04 0.01,0.03 0.01,0.04 0.01,0.04 0.01,0.03 0.01,0.03 0.01,0.03 0.01,0.03 0.01,0.03 v 0.03 l 0.01,0.03 0.01,0.03 v 0.02 l 0.01,0.03 0.01,0.02 0.01,0.05 0.01,0.04 0.01,0.05 0.01,0.03 0.01,0.04 v 0.03 l 0.01,0.03 v 0.03 l 0.01,0.03 v 0.02 l 0.01,0.02 v 0.02 0.02 0.02 l 0.01,0.02 v 0.01 0.02 0.03 0.02 0.03 c 0,1.11 -0.8,2.2 -2.34,2.2 -2.6,0 -3.19,-2.34 -3.55,-3.68 l -1.28,-5.19 c -0.61,-2.39 -1.55,-6.22 -2.1,-8.27 -0.25,-1.09 -1.79,-2.29 -1.95,-2.39 -0.55,-0.36 -1.73,-1.2 -3.39,-1.2 -2.94,0 -2.98,2.5 -2.98,3.64 0,3.05 1.54,6.92 2.93,10.52 0.5,1.29 0.66,1.64 0.66,2.48 0,2.89 -2.89,4.48 -5.64,4.48 -5.28,0 -7.77,-6.76 -7.77,-7.76 0,-0.7 0.75,-0.7 1.21,-0.7 0.59,0 0.93,0 1.14,0.65 1.64,5.53 4.37,6.02 5.12,6.02 0.36,0 0.86,0 0.86,-1.05 0,-1.14 -0.56,-2.44 -0.86,-3.23 -1.93,-4.99 -2.98,-7.82 -2.98,-10.36 0,-5.67 4.98,-6.49 7.92,-6.49 1.25,0 2.94,0.21 4.78,1.5 -1.39,-6.12 -5.12,-9.36 -8.56,-9.36 -0.66,0 -2.05,0.1 -3.05,0.69 1.6,0.66 2.39,2 2.39,3.34 0,1.8 -1.43,2.3 -2.43,2.3 -1.85,0 -3.6,-1.59 -3.6,-3.8 0,-2.53 2.64,-4.32 6.69,-4.32 5.72,0 12.3,3.82 13.84,10.01 z"
           inkscape:connector-curvature="0"
           style="fill:#000000;stroke-width:0" /><path
           id="path14606"
           d="m 597.58,418.65 v 0.37 l -0.01,0.39 -0.01,0.39 -0.01,0.41 -0.04,0.84 -0.06,0.88 -0.08,0.92 -0.11,0.95 -0.13,0.97 -0.17,1.01 -0.19,1.02 -0.23,1.03 -0.27,1.05 -0.31,1.06 -0.34,1.07 -0.4,1.07 -0.21,0.53 -0.23,0.53 -0.23,0.53 -0.25,0.53 c -2.99,6.12 -7.27,9.36 -7.77,9.36 -0.3,0 -0.5,-0.19 -0.5,-0.49 0,-0.15 0,-0.25 0.94,-1.15 4.89,-4.92 7.73,-12.85 7.73,-23.27 0,-8.51 -1.84,-17.28 -8.03,-23.56 -0.64,-0.59 -0.64,-0.7 -0.64,-0.84 0,-0.3 0.2,-0.5 0.5,-0.5 0.5,0 4.97,3.39 7.92,9.71 2.53,5.47 3.13,11 3.13,15.19 z"
           inkscape:connector-curvature="0"
           style="fill:#000000;stroke-width:0" /></g>    </g>
    <g
       id="g19427"
       transform="matrix(0.5,0,0,0.5,253.68606,335.00802)">
      <g
         word-spacing="normal"
         letter-spacing="normal"
         font-size-adjust="none"
         font-stretch="normal"
         font-weight="normal"
         font-variant="normal"
         font-style="normal"
         stroke-miterlimit="10.433"
         xml:space="preserve"
         transform="matrix(1.0629921,0,0,-1.0629921,-186.02362,789.27165)"
         id="g19425"
         style="font-style:normal;font-variant:normal;font-weight:normal;font-stretch:normal;letter-spacing:normal;word-spacing:normal;text-anchor:start;fill:none;fill-opacity:1;fill-rule:evenodd;stroke:#000000;stroke-linecap:butt;stroke-linejoin:miter;stroke-miterlimit:10.43299961;stroke-dasharray:none;stroke-dashoffset:0;stroke-opacity:1"><path
           id="path19419"
           d="m 474.1,425.03 -0.09,0.17 -0.09,0.17 -0.09,0.16 -0.09,0.16 -0.1,0.16 -0.1,0.16 -0.11,0.15 -0.11,0.14 -0.11,0.15 -0.12,0.13 -0.12,0.14 -0.12,0.13 -0.13,0.12 -0.13,0.12 -0.14,0.11 -0.14,0.11 -0.14,0.11 -0.15,0.09 -0.15,0.1 -0.15,0.08 -0.16,0.08 -0.17,0.08 -0.17,0.06 -0.17,0.07 -0.17,0.05 -0.18,0.05 -0.19,0.04 -0.19,0.03 -0.19,0.03 -0.2,0.02 -0.2,0.01 h -0.21 l 0.05,-1.09 c 3.23,0 3.93,-4.08 3.93,-4.37 0,-0.32 -0.09,-0.61 -0.14,-0.86 l -2.5,-9.77 c -0.25,-0.89 -0.25,-0.98 -1,-1.84 -2.18,-2.74 -4.23,-3.53 -5.62,-3.53 -2.49,0 -3.19,2.73 -3.19,4.68 0,2.49 1.59,8.61 2.74,10.91 1.54,2.94 3.79,4.78 5.78,4.78 l -0.05,1.09 c -5.83,0 -12,-7.31 -12,-14.59 0,-4.69 2.73,-7.97 6.62,-7.97 0.99,0 3.49,0.21 6.47,3.74 0.41,-2.1 2.14,-3.74 4.53,-3.74 1.75,0 2.9,1.14 3.69,2.74 0.85,1.79 1.5,4.84 1.5,4.93 0,0.5 -0.45,0.5 -0.59,0.5 -0.5,0 -0.55,-0.2 -0.7,-0.9 -0.85,-3.24 -1.75,-6.17 -3.79,-6.17 -1.34,0 -1.5,1.29 -1.5,2.29 0,1.1 0.1,1.49 0.64,3.69 0.57,2.09 0.66,2.59 1.11,4.48 l 1.79,6.97 c 0.35,1.39 0.35,1.5 0.35,1.69 0,0.86 -0.6,1.36 -1.45,1.36 -1.19,0 -1.94,-1.11 -2.09,-2.2 z"
           inkscape:connector-curvature="0"
           style="fill:#000000;stroke-width:0" /><path
           id="path19421"
           d="m 497.1,420.54 v 0.06 l -0.01,0.06 v 0.05 l -0.01,0.06 -0.02,0.06 -0.01,0.06 -0.02,0.05 -0.02,0.06 -0.02,0.06 -0.03,0.05 -0.02,0.06 -0.03,0.05 -0.04,0.06 -0.03,0.05 -0.04,0.05 -0.05,0.05 -0.04,0.05 -0.05,0.04 -0.05,0.05 -0.05,0.04 -0.06,0.04 -0.05,0.03 -0.07,0.04 -0.06,0.03 -0.07,0.02 -0.07,0.03 -0.07,0.02 -0.07,0.02 -0.08,0.01 -0.08,0.01 -0.09,0.01 h -0.08 c -1.02,0 -1.96,-0.98 -1.96,-1.92 0,-0.56 0.43,-1.33 1.39,-1.33 0.94,0 1.96,0.91 1.96,1.92 z"
           inkscape:connector-curvature="0"
           style="fill:#000000;stroke-width:0" /><path
           id="path19423"
           d="m 489.71,397.06 -0.06,-0.23 -0.07,-0.22 -0.07,-0.22 -0.08,-0.21 -0.09,-0.21 -0.09,-0.21 -0.1,-0.21 -0.11,-0.2 -0.11,-0.19 -0.11,-0.19 -0.13,-0.19 -0.12,-0.18 -0.14,-0.17 -0.13,-0.17 -0.14,-0.16 -0.15,-0.15 -0.15,-0.15 -0.15,-0.14 -0.16,-0.13 -0.17,-0.13 -0.16,-0.11 -0.17,-0.11 -0.17,-0.1 -0.18,-0.09 -0.17,-0.08 -0.18,-0.07 -0.19,-0.06 -0.18,-0.05 -0.19,-0.04 -0.19,-0.03 -0.19,-0.02 h -0.19 c -0.45,0 -0.87,0.06 -1.26,0.2 0.9,0.42 1.18,1.25 1.18,1.78 0,0.83 -0.65,1.28 -1.35,1.28 -1.08,0 -1.99,-0.94 -1.99,-2.04 0,-1.33 1.36,-2.21 3.45,-2.21 2.1,0 6.16,1.25 7.25,5.5 l 3.13,12.49 c 0.11,0.37 0.17,0.68 0.17,1.22 0,1.9 -1.62,3.26 -3.72,3.26 -3.87,0 -6.09,-4.84 -6.09,-5.33 0,-0.45 0.48,-0.45 0.59,-0.45 0.41,0 0.46,0.11 0.69,0.62 0.87,2.04 2.69,4.19 4.7,4.19 0.88,0 1.19,-0.59 1.19,-1.7 0,-0.39 -0.06,-0.88 -0.11,-1.05 z"
           inkscape:connector-curvature="0"
           style="fill:#000000;stroke-width:0" /></g>    </g>
  </g>
</svg>
