<?xml version="1.0" encoding="utf-8"?>
<svg xmlns="http://www.w3.org/2000/svg" xmlns:xlink="http://www.w3.org/1999/xlink" width="600" height="400" viewBox="0 0 2400 1600">
<defs>
  <clipPath id="clip610">
    <rect x="0" y="0" width="2400" height="1600"/>
  </clipPath>
</defs>
<path clip-path="url(#clip610)" d="
M0 1600 L2400 1600 L2400 0 L0 0  Z
  " fill="#ffffff" fill-rule="evenodd" fill-opacity="1"/>
<defs>
  <clipPath id="clip611">
    <rect x="480" y="0" width="1681" height="1600"/>
  </clipPath>
</defs>
<path clip-path="url(#clip610)" d="
M223.523 1441.14 L2352.76 1441.14 L2352.76 47.2441 L223.523 47.2441  Z
  " fill="#ffffff" fill-rule="evenodd" fill-opacity="1"/>
<defs>
  <clipPath id="clip612">
    <rect x="223" y="47" width="2130" height="1395"/>
  </clipPath>
</defs>
<polyline clip-path="url(#clip610)" style="stroke:#000000; stroke-width:4; stroke-opacity:1; fill:none" points="
  223.523,1441.14 2352.76,1441.14 
  "/>
<polyline clip-path="url(#clip610)" style="stroke:#000000; stroke-width:4; stroke-opacity:1; fill:none" points="
  223.523,1441.14 223.523,47.2441 
  "/>
<polyline clip-path="url(#clip610)" style="stroke:#000000; stroke-width:4; stroke-opacity:1; fill:none" points="
  329.074,1441.14 329.074,1424.42 
  "/>
<polyline clip-path="url(#clip610)" style="stroke:#000000; stroke-width:4; stroke-opacity:1; fill:none" points="
  648.932,1441.14 648.932,1424.42 
  "/>
<polyline clip-path="url(#clip610)" style="stroke:#000000; stroke-width:4; stroke-opacity:1; fill:none" points="
  968.79,1441.14 968.79,1424.42 
  "/>
<polyline clip-path="url(#clip610)" style="stroke:#000000; stroke-width:4; stroke-opacity:1; fill:none" points="
  1288.65,1441.14 1288.65,1424.42 
  "/>
<polyline clip-path="url(#clip610)" style="stroke:#000000; stroke-width:4; stroke-opacity:1; fill:none" points="
  1608.51,1441.14 1608.51,1424.42 
  "/>
<polyline clip-path="url(#clip610)" style="stroke:#000000; stroke-width:4; stroke-opacity:1; fill:none" points="
  1928.37,1441.14 1928.37,1424.42 
  "/>
<polyline clip-path="url(#clip610)" style="stroke:#000000; stroke-width:4; stroke-opacity:1; fill:none" points="
  2248.22,1441.14 2248.22,1424.42 
  "/>
<polyline clip-path="url(#clip610)" style="stroke:#000000; stroke-width:4; stroke-opacity:1; fill:none" points="
  223.523,1380.56 249.074,1380.56 
  "/>
<polyline clip-path="url(#clip610)" style="stroke:#000000; stroke-width:4; stroke-opacity:1; fill:none" points="
  223.523,1118.54 249.074,1118.54 
  "/>
<polyline clip-path="url(#clip610)" style="stroke:#000000; stroke-width:4; stroke-opacity:1; fill:none" points="
  223.523,856.528 249.074,856.528 
  "/>
<polyline clip-path="url(#clip610)" style="stroke:#000000; stroke-width:4; stroke-opacity:1; fill:none" points="
  223.523,594.514 249.074,594.514 
  "/>
<polyline clip-path="url(#clip610)" style="stroke:#000000; stroke-width:4; stroke-opacity:1; fill:none" points="
  223.523,332.5 249.074,332.5 
  "/>
<polyline clip-path="url(#clip610)" style="stroke:#000000; stroke-width:4; stroke-opacity:1; fill:none" points="
  223.523,70.4865 249.074,70.4865 
  "/>
<path clip-path="url(#clip610)" d="M 0 0 M309.653 1479.73 L322.129 1479.73 L322.129 1483.53 L309.653 1483.53 L309.653 1479.73 Z" fill="#000000" fill-rule="evenodd" fill-opacity="1" /><path clip-path="url(#clip610)" d="M 0 0 M341.365 1475.98 Q344.722 1476.7 346.597 1478.97 Q348.495 1481.24 348.495 1484.57 Q348.495 1489.68 344.977 1492.49 Q341.458 1495.29 334.977 1495.29 Q332.801 1495.29 330.486 1494.85 Q328.194 1494.43 325.74 1493.57 L325.74 1489.06 Q327.685 1490.19 330 1490.77 Q332.315 1491.35 334.838 1491.35 Q339.236 1491.35 341.527 1489.62 Q343.842 1487.88 343.842 1484.57 Q343.842 1481.51 341.689 1479.8 Q339.56 1478.06 335.74 1478.06 L331.713 1478.06 L331.713 1474.22 L335.926 1474.22 Q339.375 1474.22 341.203 1472.86 Q343.032 1471.47 343.032 1468.87 Q343.032 1466.21 341.134 1464.8 Q339.259 1463.37 335.74 1463.37 Q333.819 1463.37 331.62 1463.78 Q329.421 1464.2 326.782 1465.08 L326.782 1460.91 Q329.444 1460.17 331.759 1459.8 Q334.097 1459.43 336.157 1459.43 Q341.481 1459.43 344.583 1461.86 Q347.685 1464.27 347.685 1468.39 Q347.685 1471.26 346.041 1473.25 Q344.398 1475.22 341.365 1475.98 Z" fill="#000000" fill-rule="evenodd" fill-opacity="1" /><path clip-path="url(#clip610)" d="M 0 0 M629.985 1479.73 L642.462 1479.73 L642.462 1483.53 L629.985 1483.53 L629.985 1479.73 Z" fill="#000000" fill-rule="evenodd" fill-opacity="1" /><path clip-path="url(#clip610)" d="M 0 0 M651.559 1490.68 L667.879 1490.68 L667.879 1494.62 L645.934 1494.62 L645.934 1490.68 Q648.597 1487.93 653.18 1483.3 Q657.786 1478.64 658.967 1477.3 Q661.212 1474.78 662.092 1473.04 Q662.995 1471.28 662.995 1469.59 Q662.995 1466.84 661.05 1465.1 Q659.129 1463.37 656.027 1463.37 Q653.828 1463.37 651.374 1464.13 Q648.944 1464.89 646.166 1466.44 L646.166 1461.72 Q648.99 1460.59 651.444 1460.01 Q653.897 1459.43 655.934 1459.43 Q661.305 1459.43 664.499 1462.12 Q667.694 1464.8 667.694 1469.29 Q667.694 1471.42 666.883 1473.34 Q666.096 1475.24 663.99 1477.83 Q663.411 1478.5 660.309 1481.72 Q657.208 1484.92 651.559 1490.68 Z" fill="#000000" fill-rule="evenodd" fill-opacity="1" /><path clip-path="url(#clip610)" d="M 0 0 M949.659 1479.73 L962.135 1479.73 L962.135 1483.53 L949.659 1483.53 L949.659 1479.73 Z" fill="#000000" fill-rule="evenodd" fill-opacity="1" /><path clip-path="url(#clip610)" d="M 0 0 M968.015 1490.68 L975.654 1490.68 L975.654 1464.31 L967.344 1465.98 L967.344 1461.72 L975.608 1460.06 L980.283 1460.06 L980.283 1490.68 L987.922 1490.68 L987.922 1494.62 L968.015 1494.62 L968.015 1490.68 Z" fill="#000000" fill-rule="evenodd" fill-opacity="1" /><path clip-path="url(#clip610)" d="M 0 0 M1288.65 1463.13 Q1285.04 1463.13 1283.21 1466.7 Q1281.4 1470.24 1281.4 1477.37 Q1281.4 1484.48 1283.21 1488.04 Q1285.04 1491.58 1288.65 1491.58 Q1292.28 1491.58 1294.09 1488.04 Q1295.92 1484.48 1295.92 1477.37 Q1295.92 1470.24 1294.09 1466.7 Q1292.28 1463.13 1288.65 1463.13 M1288.65 1459.43 Q1294.46 1459.43 1297.51 1464.04 Q1300.59 1468.62 1300.59 1477.37 Q1300.59 1486.1 1297.51 1490.7 Q1294.46 1495.29 1288.65 1495.29 Q1282.84 1495.29 1279.76 1490.7 Q1276.7 1486.1 1276.7 1477.37 Q1276.7 1468.62 1279.76 1464.04 Q1282.84 1459.43 1288.65 1459.43 Z" fill="#000000" fill-rule="evenodd" fill-opacity="1" /><path clip-path="url(#clip610)" d="M 0 0 M1598.89 1490.68 L1606.53 1490.68 L1606.53 1464.31 L1598.22 1465.98 L1598.22 1461.72 L1606.48 1460.06 L1611.16 1460.06 L1611.16 1490.68 L1618.8 1490.68 L1618.8 1494.62 L1598.89 1494.62 L1598.89 1490.68 Z" fill="#000000" fill-rule="evenodd" fill-opacity="1" /><path clip-path="url(#clip610)" d="M 0 0 M1923.02 1490.68 L1939.34 1490.68 L1939.34 1494.62 L1917.39 1494.62 L1917.39 1490.68 Q1920.06 1487.93 1924.64 1483.3 Q1929.25 1478.64 1930.43 1477.3 Q1932.67 1474.78 1933.55 1473.04 Q1934.45 1471.28 1934.45 1469.59 Q1934.45 1466.84 1932.51 1465.1 Q1930.59 1463.37 1927.49 1463.37 Q1925.29 1463.37 1922.83 1464.13 Q1920.4 1464.89 1917.62 1466.44 L1917.62 1461.72 Q1920.45 1460.59 1922.9 1460.01 Q1925.36 1459.43 1927.39 1459.43 Q1932.76 1459.43 1935.96 1462.12 Q1939.15 1464.8 1939.15 1469.29 Q1939.15 1471.42 1938.34 1473.34 Q1937.56 1475.24 1935.45 1477.83 Q1934.87 1478.5 1931.77 1481.72 Q1928.67 1484.92 1923.02 1490.68 Z" fill="#000000" fill-rule="evenodd" fill-opacity="1" /><path clip-path="url(#clip610)" d="M 0 0 M2252.47 1475.98 Q2255.83 1476.7 2257.7 1478.97 Q2259.6 1481.24 2259.6 1484.57 Q2259.6 1489.68 2256.08 1492.49 Q2252.56 1495.29 2246.08 1495.29 Q2243.91 1495.29 2241.59 1494.85 Q2239.3 1494.43 2236.85 1493.57 L2236.85 1489.06 Q2238.79 1490.19 2241.11 1490.77 Q2243.42 1491.35 2245.94 1491.35 Q2250.34 1491.35 2252.63 1489.62 Q2254.95 1487.88 2254.95 1484.57 Q2254.95 1481.51 2252.8 1479.8 Q2250.67 1478.06 2246.85 1478.06 L2242.82 1478.06 L2242.82 1474.22 L2247.03 1474.22 Q2250.48 1474.22 2252.31 1472.86 Q2254.14 1471.47 2254.14 1468.87 Q2254.14 1466.21 2252.24 1464.8 Q2250.37 1463.37 2246.85 1463.37 Q2244.93 1463.37 2242.73 1463.78 Q2240.53 1464.2 2237.89 1465.08 L2237.89 1460.91 Q2240.55 1460.17 2242.87 1459.8 Q2245.2 1459.43 2247.26 1459.43 Q2252.59 1459.43 2255.69 1461.86 Q2258.79 1464.27 2258.79 1468.39 Q2258.79 1471.26 2257.15 1473.25 Q2255.5 1475.22 2252.47 1475.98 Z" fill="#000000" fill-rule="evenodd" fill-opacity="1" /><path clip-path="url(#clip610)" d="M 0 0 M124.292 1382.95 L136.769 1382.95 L136.769 1386.75 L124.292 1386.75 L124.292 1382.95 Z" fill="#000000" fill-rule="evenodd" fill-opacity="1" /><path clip-path="url(#clip610)" d="M 0 0 M142.648 1393.9 L150.287 1393.9 L150.287 1367.54 L141.977 1369.2 L141.977 1364.94 L150.241 1363.28 L154.917 1363.28 L154.917 1393.9 L162.556 1393.9 L162.556 1397.84 L142.648 1397.84 L142.648 1393.9 Z" fill="#000000" fill-rule="evenodd" fill-opacity="1" /><path clip-path="url(#clip610)" d="M 0 0 M167.625 1391.96 L172.509 1391.96 L172.509 1397.84 L167.625 1397.84 L167.625 1391.96 Z" fill="#000000" fill-rule="evenodd" fill-opacity="1" /><path clip-path="url(#clip610)" d="M 0 0 M187.579 1366.35 Q183.967 1366.35 182.139 1369.92 Q180.333 1373.46 180.333 1380.59 Q180.333 1387.7 182.139 1391.26 Q183.967 1394.8 187.579 1394.8 Q191.213 1394.8 193.018 1391.26 Q194.847 1387.7 194.847 1380.59 Q194.847 1373.46 193.018 1369.92 Q191.213 1366.35 187.579 1366.35 M187.579 1362.65 Q193.389 1362.65 196.444 1367.26 Q199.523 1371.84 199.523 1380.59 Q199.523 1389.32 196.444 1393.92 Q193.389 1398.51 187.579 1398.51 Q181.768 1398.51 178.69 1393.92 Q175.634 1389.32 175.634 1380.59 Q175.634 1371.84 178.69 1367.26 Q181.768 1362.65 187.579 1362.65 Z" fill="#000000" fill-rule="evenodd" fill-opacity="1" /><path clip-path="url(#clip610)" d="M 0 0 M124.06 1120.94 L136.537 1120.94 L136.537 1124.73 L124.06 1124.73 L124.06 1120.94 Z" fill="#000000" fill-rule="evenodd" fill-opacity="1" /><path clip-path="url(#clip610)" d="M 0 0 M151.607 1104.34 Q147.995 1104.34 146.167 1107.91 Q144.361 1111.45 144.361 1118.58 Q144.361 1125.68 146.167 1129.25 Q147.995 1132.79 151.607 1132.79 Q155.241 1132.79 157.046 1129.25 Q158.875 1125.68 158.875 1118.58 Q158.875 1111.45 157.046 1107.91 Q155.241 1104.34 151.607 1104.34 M151.607 1100.64 Q157.417 1100.64 160.472 1105.24 Q163.551 1109.83 163.551 1118.58 Q163.551 1127.3 160.472 1131.91 Q157.417 1136.49 151.607 1136.49 Q145.796 1136.49 142.718 1131.91 Q139.662 1127.3 139.662 1118.58 Q139.662 1109.83 142.718 1105.24 Q145.796 1100.64 151.607 1100.64 Z" fill="#000000" fill-rule="evenodd" fill-opacity="1" /><path clip-path="url(#clip610)" d="M 0 0 M168.62 1129.94 L173.505 1129.94 L173.505 1135.82 L168.62 1135.82 L168.62 1129.94 Z" fill="#000000" fill-rule="evenodd" fill-opacity="1" /><path clip-path="url(#clip610)" d="M 0 0 M178.62 1101.26 L196.977 1101.26 L196.977 1105.2 L182.903 1105.2 L182.903 1113.67 Q183.921 1113.32 184.94 1113.16 Q185.958 1112.97 186.977 1112.97 Q192.764 1112.97 196.143 1116.15 Q199.523 1119.32 199.523 1124.73 Q199.523 1130.31 196.051 1133.41 Q192.579 1136.49 186.259 1136.49 Q184.083 1136.49 181.815 1136.12 Q179.569 1135.75 177.162 1135.01 L177.162 1130.31 Q179.245 1131.45 181.467 1132 Q183.69 1132.56 186.167 1132.56 Q190.171 1132.56 192.509 1130.45 Q194.847 1128.35 194.847 1124.73 Q194.847 1121.12 192.509 1119.02 Q190.171 1116.91 186.167 1116.91 Q184.292 1116.91 182.417 1117.33 Q180.565 1117.74 178.62 1118.62 L178.62 1101.26 Z" fill="#000000" fill-rule="evenodd" fill-opacity="1" /><path clip-path="url(#clip610)" d="M 0 0 M150.611 842.327 Q147 842.327 145.171 845.892 Q143.366 849.433 143.366 856.563 Q143.366 863.669 145.171 867.234 Q147 870.776 150.611 870.776 Q154.245 870.776 156.051 867.234 Q157.88 863.669 157.88 856.563 Q157.88 849.433 156.051 845.892 Q154.245 842.327 150.611 842.327 M150.611 838.623 Q156.421 838.623 159.477 843.23 Q162.556 847.813 162.556 856.563 Q162.556 865.29 159.477 869.896 Q156.421 874.479 150.611 874.479 Q144.801 874.479 141.722 869.896 Q138.667 865.29 138.667 856.563 Q138.667 847.813 141.722 843.23 Q144.801 838.623 150.611 838.623 Z" fill="#000000" fill-rule="evenodd" fill-opacity="1" /><path clip-path="url(#clip610)" d="M 0 0 M167.625 867.928 L172.509 867.928 L172.509 873.808 L167.625 873.808 L167.625 867.928 Z" fill="#000000" fill-rule="evenodd" fill-opacity="1" /><path clip-path="url(#clip610)" d="M 0 0 M187.579 842.327 Q183.967 842.327 182.139 845.892 Q180.333 849.433 180.333 856.563 Q180.333 863.669 182.139 867.234 Q183.967 870.776 187.579 870.776 Q191.213 870.776 193.018 867.234 Q194.847 863.669 194.847 856.563 Q194.847 849.433 193.018 845.892 Q191.213 842.327 187.579 842.327 M187.579 838.623 Q193.389 838.623 196.444 843.23 Q199.523 847.813 199.523 856.563 Q199.523 865.29 196.444 869.896 Q193.389 874.479 187.579 874.479 Q181.768 874.479 178.69 869.896 Q175.634 865.29 175.634 856.563 Q175.634 847.813 178.69 843.23 Q181.768 838.623 187.579 838.623 Z" fill="#000000" fill-rule="evenodd" fill-opacity="1" /><path clip-path="url(#clip610)" d="M 0 0 M151.607 580.313 Q147.995 580.313 146.167 583.878 Q144.361 587.419 144.361 594.549 Q144.361 601.655 146.167 605.22 Q147.995 608.762 151.607 608.762 Q155.241 608.762 157.046 605.22 Q158.875 601.655 158.875 594.549 Q158.875 587.419 157.046 583.878 Q155.241 580.313 151.607 580.313 M151.607 576.609 Q157.417 576.609 160.472 581.216 Q163.551 585.799 163.551 594.549 Q163.551 603.276 160.472 607.882 Q157.417 612.465 151.607 612.465 Q145.796 612.465 142.718 607.882 Q139.662 603.276 139.662 594.549 Q139.662 585.799 142.718 581.216 Q145.796 576.609 151.607 576.609 Z" fill="#000000" fill-rule="evenodd" fill-opacity="1" /><path clip-path="url(#clip610)" d="M 0 0 M168.62 605.915 L173.505 605.915 L173.505 611.794 L168.62 611.794 L168.62 605.915 Z" fill="#000000" fill-rule="evenodd" fill-opacity="1" /><path clip-path="url(#clip610)" d="M 0 0 M178.62 577.234 L196.977 577.234 L196.977 581.169 L182.903 581.169 L182.903 589.642 Q183.921 589.294 184.94 589.132 Q185.958 588.947 186.977 588.947 Q192.764 588.947 196.143 592.118 Q199.523 595.29 199.523 600.706 Q199.523 606.285 196.051 609.387 Q192.579 612.465 186.259 612.465 Q184.083 612.465 181.815 612.095 Q179.569 611.725 177.162 610.984 L177.162 606.285 Q179.245 607.419 181.467 607.975 Q183.69 608.53 186.167 608.53 Q190.171 608.53 192.509 606.424 Q194.847 604.317 194.847 600.706 Q194.847 597.095 192.509 594.989 Q190.171 592.882 186.167 592.882 Q184.292 592.882 182.417 593.299 Q180.565 593.716 178.62 594.595 L178.62 577.234 Z" fill="#000000" fill-rule="evenodd" fill-opacity="1" /><path clip-path="url(#clip610)" d="M 0 0 M142.648 345.845 L150.287 345.845 L150.287 319.48 L141.977 321.146 L141.977 316.887 L150.241 315.22 L154.917 315.22 L154.917 345.845 L162.556 345.845 L162.556 349.78 L142.648 349.78 L142.648 345.845 Z" fill="#000000" fill-rule="evenodd" fill-opacity="1" /><path clip-path="url(#clip610)" d="M 0 0 M167.625 343.901 L172.509 343.901 L172.509 349.78 L167.625 349.78 L167.625 343.901 Z" fill="#000000" fill-rule="evenodd" fill-opacity="1" /><path clip-path="url(#clip610)" d="M 0 0 M187.579 318.299 Q183.967 318.299 182.139 321.864 Q180.333 325.405 180.333 332.535 Q180.333 339.641 182.139 343.206 Q183.967 346.748 187.579 346.748 Q191.213 346.748 193.018 343.206 Q194.847 339.641 194.847 332.535 Q194.847 325.405 193.018 321.864 Q191.213 318.299 187.579 318.299 M187.579 314.595 Q193.389 314.595 196.444 319.202 Q199.523 323.785 199.523 332.535 Q199.523 341.262 196.444 345.868 Q193.389 350.452 187.579 350.452 Q181.768 350.452 178.69 345.868 Q175.634 341.262 175.634 332.535 Q175.634 323.785 178.69 319.202 Q181.768 314.595 187.579 314.595 Z" fill="#000000" fill-rule="evenodd" fill-opacity="1" /><path clip-path="url(#clip610)" d="M 0 0 M143.644 83.8313 L151.282 83.8313 L151.282 57.4657 L142.972 59.1324 L142.972 54.8731 L151.236 53.2065 L155.912 53.2065 L155.912 83.8313 L163.551 83.8313 L163.551 87.7665 L143.644 87.7665 L143.644 83.8313 Z" fill="#000000" fill-rule="evenodd" fill-opacity="1" /><path clip-path="url(#clip610)" d="M 0 0 M168.62 81.8869 L173.505 81.8869 L173.505 87.7665 L168.62 87.7665 L168.62 81.8869 Z" fill="#000000" fill-rule="evenodd" fill-opacity="1" /><path clip-path="url(#clip610)" d="M 0 0 M178.62 53.2065 L196.977 53.2065 L196.977 57.1416 L182.903 57.1416 L182.903 65.6138 Q183.921 65.2666 184.94 65.1045 Q185.958 64.9194 186.977 64.9194 Q192.764 64.9194 196.143 68.0906 Q199.523 71.2619 199.523 76.6786 Q199.523 82.2572 196.051 85.3591 Q192.579 88.4378 186.259 88.4378 Q184.083 88.4378 181.815 88.0674 Q179.569 87.697 177.162 86.9563 L177.162 82.2572 Q179.245 83.3915 181.467 83.947 Q183.69 84.5026 186.167 84.5026 Q190.171 84.5026 192.509 82.3961 Q194.847 80.2896 194.847 76.6786 Q194.847 73.0675 192.509 70.961 Q190.171 68.8545 186.167 68.8545 Q184.292 68.8545 182.417 69.2712 Q180.565 69.6879 178.62 70.5675 L178.62 53.2065 Z" fill="#000000" fill-rule="evenodd" fill-opacity="1" /><path clip-path="url(#clip610)" d="M 0 0 M1296.6 1530.55 Q1296.6 1531.45 1296.18 1531.68 Q1295.76 1531.87 1294.61 1531.87 L1288.42 1531.87 L1283.53 1551.32 Q1283.14 1553.03 1283.14 1554.48 Q1283.14 1556.09 1283.62 1556.8 Q1284.14 1557.51 1285.2 1557.51 Q1287.29 1557.51 1289.55 1555.61 Q1291.84 1553.71 1293.77 1549.07 Q1294.03 1548.46 1294.15 1548.33 Q1294.32 1548.17 1294.73 1548.17 Q1295.54 1548.17 1295.54 1548.81 Q1295.54 1549.04 1295.09 1550.07 Q1294.67 1551.1 1293.74 1552.61 Q1292.83 1554.13 1291.64 1555.54 Q1290.48 1556.96 1288.71 1557.99 Q1286.94 1558.99 1285.04 1558.99 Q1282.37 1558.99 1280.66 1557.28 Q1278.99 1555.58 1278.99 1552.9 Q1278.99 1552.03 1279.66 1549.26 Q1280.34 1546.46 1284.01 1531.87 L1278.18 1531.87 Q1277.38 1531.87 1277.05 1531.84 Q1276.76 1531.81 1276.54 1531.65 Q1276.34 1531.45 1276.34 1531.07 Q1276.34 1530.46 1276.6 1530.2 Q1276.86 1529.91 1277.18 1529.88 Q1277.54 1529.81 1278.34 1529.81 L1284.52 1529.81 L1287.1 1519.34 Q1287.36 1518.31 1288 1517.73 Q1288.68 1517.12 1289.07 1517.06 Q1289.45 1516.96 1289.74 1516.96 Q1290.61 1516.96 1291.13 1517.44 Q1291.64 1517.89 1291.64 1518.73 Q1291.64 1519.18 1288.94 1529.81 L1294.73 1529.81 Q1295.47 1529.81 1295.76 1529.84 Q1296.09 1529.88 1296.34 1530.04 Q1296.6 1530.2 1296.6 1530.55 Z" fill="#000000" fill-rule="evenodd" fill-opacity="1" /><path clip-path="url(#clip610)" d="M 0 0 M58.0118 767.174 Q59.8154 767.174 60.846 768.301 Q61.8443 769.429 61.8443 770.717 Q61.8443 771.941 61.1358 772.585 Q60.4273 773.229 59.5255 773.229 Q58.3017 773.229 57.2389 772.327 Q56.1761 771.425 55.9507 770.073 Q55.1133 771.393 55.1133 773.358 Q55.1133 774.646 55.7896 775.773 Q56.466 776.868 57.3355 777.544 Q58.2051 778.189 59.4611 778.768 Q60.6849 779.316 61.4257 779.541 Q62.1342 779.734 62.9071 779.895 L71.9248 782.15 Q76.2082 783.245 77.7218 783.245 Q79.5898 783.245 80.8458 782.343 Q82.0696 781.441 82.0696 779.638 Q82.0696 778.929 81.8764 778.124 Q81.6509 777.319 81.0712 776.288 Q80.4593 775.226 79.5576 774.292 Q78.6236 773.325 77.0455 772.392 Q75.4674 771.458 73.4384 770.846 Q72.7299 770.652 72.7299 770.008 Q72.7299 769.203 73.374 769.203 Q73.9215 769.203 75.0809 769.654 Q76.2082 770.073 77.6896 771.007 Q79.1389 771.908 80.4593 773.1 Q81.7476 774.292 82.6493 776.063 Q83.5511 777.834 83.5511 779.767 Q83.5511 782.536 82.0696 784.372 Q80.5882 786.208 78.527 786.884 Q78.8168 787.045 79.2033 787.271 Q79.5898 787.496 80.4593 788.172 Q81.2967 788.817 81.9408 789.557 Q82.5527 790.298 83.0358 791.457 Q83.5511 792.585 83.5511 793.808 Q83.5511 795.354 83.1002 796.739 Q82.6493 798.092 81.6187 799.058 Q80.5882 800.024 79.1711 800.024 Q77.593 800.024 76.498 798.961 Q75.3708 797.866 75.3708 796.385 Q75.3708 795.451 75.9183 794.71 Q76.4658 793.937 77.6574 793.937 Q78.9779 793.937 79.9762 794.839 Q80.9746 795.741 81.2323 797.029 Q82.0696 795.709 82.0696 793.744 Q82.0696 791.618 80.2017 789.944 Q78.3337 788.269 75.2098 787.464 Q67.7058 785.467 64.3564 784.694 Q60.9748 783.921 59.5255 783.921 Q58.1729 783.921 57.2389 784.275 Q56.3049 784.63 55.8863 785.242 Q55.4354 785.821 55.2743 786.369 Q55.1133 786.884 55.1133 787.464 Q55.1133 788.43 55.4998 789.525 Q55.8863 790.588 56.788 791.876 Q57.6576 793.132 59.4611 794.324 Q61.2646 795.515 63.7445 796.32 Q64.4852 796.482 64.4852 797.19 Q64.453 797.963 63.8089 797.963 Q63.2614 797.963 62.1342 797.544 Q60.9748 797.093 59.5255 796.192 Q58.0763 795.258 56.788 794.066 Q55.4676 792.842 54.5658 791.071 Q53.6641 789.267 53.6641 787.335 Q53.6641 786.465 53.8573 785.628 Q54.0183 784.759 54.5014 783.728 Q54.9845 782.665 56.0473 781.731 Q57.1101 780.797 58.656 780.218 Q57.9152 779.831 57.2067 779.316 Q56.4982 778.768 55.6286 777.931 Q54.7268 777.061 54.2115 775.87 Q53.6641 774.646 53.6641 773.293 Q53.6641 771.973 54.0183 770.685 Q54.3404 769.396 55.4032 768.301 Q56.4338 767.174 58.0118 767.174 Z" fill="#000000" fill-rule="evenodd" fill-opacity="1" /><path clip-path="url(#clip610)" d="M 0 0 M66.321 762.644 Q55.1777 762.644 46.1923 758.49 Q42.4242 756.718 39.268 754.238 Q36.1119 751.759 34.727 750.116 Q33.3422 748.474 33.3422 748.023 Q33.3422 747.379 33.9863 747.346 Q34.3083 747.346 35.1135 748.216 Q45.9346 758.844 66.321 758.812 Q86.7717 758.812 97.1742 748.474 Q98.3014 747.346 98.6556 747.346 Q99.2998 747.346 99.2998 748.023 Q99.2998 748.474 97.9793 750.052 Q96.6589 751.63 93.6315 754.077 Q90.6042 756.525 86.9005 758.296 Q77.9151 762.644 66.321 762.644 Z" fill="#000000" fill-rule="evenodd" fill-opacity="1" /><path clip-path="url(#clip610)" d="M 0 0 M55.1133 717.041 Q56.0151 717.041 56.2405 717.46 Q56.4338 717.878 56.4338 719.038 L56.4338 725.221 L75.8861 730.117 Q77.593 730.503 79.0423 730.503 Q80.6526 730.503 81.3611 730.02 Q82.0696 729.505 82.0696 728.442 Q82.0696 726.349 80.1695 724.094 Q78.2693 721.808 73.6317 719.875 Q73.0198 719.618 72.8909 719.489 Q72.7299 719.328 72.7299 718.909 Q72.7299 718.104 73.374 718.104 Q73.5995 718.104 74.6301 718.555 Q75.6607 718.973 77.1743 719.907 Q78.688 720.809 80.1051 722.001 Q81.5221 723.16 82.5527 724.932 Q83.5511 726.703 83.5511 728.603 Q83.5511 731.276 81.8442 732.983 Q80.1373 734.658 77.4642 734.658 Q76.5946 734.658 73.8249 733.981 Q71.023 733.305 56.4338 729.634 L56.4338 735.463 Q56.4338 736.268 56.4015 736.59 Q56.3693 736.88 56.2083 737.105 Q56.0151 737.299 55.6286 737.299 Q55.0167 737.299 54.759 737.041 Q54.4692 736.783 54.437 736.461 Q54.3726 736.107 54.3726 735.302 L54.3726 729.118 L43.9057 726.542 Q42.8751 726.284 42.2954 725.64 Q41.6835 724.964 41.6191 724.577 Q41.5224 724.191 41.5224 723.901 Q41.5224 723.031 42.0055 722.516 Q42.4564 722.001 43.2938 722.001 Q43.7446 722.001 54.3726 724.706 L54.3726 718.909 Q54.3726 718.168 54.4048 717.878 Q54.437 717.556 54.598 717.299 Q54.759 717.041 55.1133 717.041 Z" fill="#000000" fill-rule="evenodd" fill-opacity="1" /><path clip-path="url(#clip610)" d="M 0 0 M98.6556 713.709 Q98.3336 713.709 97.5284 712.871 Q86.7073 702.243 66.321 702.243 Q45.8702 702.243 35.5322 712.453 Q34.3405 713.709 33.9863 713.709 Q33.3422 713.709 33.3422 713.065 Q33.3422 712.614 34.6626 711.036 Q35.983 709.425 39.0104 707.01 Q42.0377 704.562 45.7414 702.759 Q54.7268 698.411 66.321 698.411 Q77.4642 698.411 86.4496 702.565 Q90.2177 704.337 93.3739 706.817 Q96.5301 709.297 97.9149 710.939 Q99.2998 712.582 99.2998 713.065 Q99.2998 713.709 98.6556 713.709 Z" fill="#000000" fill-rule="evenodd" fill-opacity="1" /><polyline clip-path="url(#clip612)" style="stroke:#ff7e00; stroke-width:8; stroke-opacity:1; fill:none" points="
  283.784,840.59 286.983,722.65 290.181,1030.26 293.38,1031.54 296.579,860.197 299.777,863.37 302.976,1136.12 306.174,976.589 309.373,850.682 312.571,1023.01 
  315.77,911.909 318.969,764.877 322.167,744.299 325.366,826.087 328.564,860.35 331.763,828.75 334.962,1039.02 338.16,931.866 341.359,815.799 344.557,996.882 
  347.756,917.789 350.954,1130.85 354.153,913.392 357.352,1044.93 360.55,1078.67 363.749,873.626 366.947,843.538 370.146,911.882 373.345,1012.48 376.543,1031.17 
  379.742,1033.11 382.94,1177.85 386.139,1124.25 389.337,926.598 392.536,1151.4 395.735,1109.25 398.933,1313.81 402.132,1147.54 405.33,859.295 408.529,1079.82 
  411.728,928.12 414.926,986.246 418.125,1206.43 421.323,1085.8 424.522,1237.7 427.72,1125.92 430.919,1041.34 434.118,1053.33 437.316,1278.61 440.515,1121.75 
  443.713,1146.45 446.912,1235.17 450.111,1005.53 453.309,1153.89 456.508,1192.68 459.706,1280.83 462.905,1109.9 466.103,1318.46 469.302,1344.6 472.501,1000.68 
  475.699,1132.15 478.898,1272.91 482.096,969.335 485.295,1238.57 488.494,1028.59 491.692,1133.01 494.891,1257.9 498.089,1081.86 501.288,1246.06 504.486,1148.57 
  507.685,854.838 510.884,1106.88 514.082,1100.59 517.281,1097.09 520.479,1096.79 523.678,1047.63 526.877,913.033 530.075,888.802 533.274,889.71 536.472,937.233 
  539.671,858.157 542.869,867.915 546.068,920.356 549.267,1039.16 552.465,1005.03 555.664,881.06 558.862,885.423 562.061,933.186 565.26,701.14 568.458,831.363 
  571.657,686.285 574.855,674.817 578.054,521.845 581.252,719.385 584.451,649.465 587.65,626.878 590.848,749.641 594.047,716.651 597.245,758.67 600.444,558.172 
  603.643,627.455 606.841,404.789 610.04,645 613.238,594.662 616.437,625.632 619.635,507.768 622.834,418.198 626.033,479.798 629.231,573.038 632.43,464.699 
  635.628,587.777 638.827,609.267 642.026,420.636 645.224,777.031 648.423,431.316 651.621,365.651 654.82,167.649 658.018,582.17 661.217,367.254 664.416,396.085 
  667.614,698.371 670.813,594.716 674.011,522.745 677.21,358.78 680.409,599.018 683.607,517.261 686.806,488.767 690.004,772.8 693.203,599.018 696.401,730.625 
  699.6,617.903 702.799,668.692 705.997,600.516 709.196,736.874 712.394,533.709 715.593,599.339 718.792,633.667 721.99,819.484 725.189,723.907 728.387,636.134 
  731.586,813.269 734.784,819.341 737.983,773.235 741.182,826.12 744.38,857.905 747.579,786.362 750.777,758.483 753.976,886.569 757.175,972.083 760.373,877.696 
  763.572,950.596 766.77,880.446 769.969,1058.17 773.167,975.591 776.366,1078.16 779.565,897.623 782.763,955.525 785.962,1276.9 789.16,1188.68 792.359,1011.87 
  795.558,1049.28 798.756,1267.6 801.955,890.448 805.153,1114.62 808.352,1064.59 811.55,1091.06 814.749,1058.87 817.948,1150.4 821.146,1232.12 824.345,1127.61 
  827.543,983.879 830.742,1068.64 833.941,1052 837.139,1275.88 840.338,1117.79 843.536,1125.14 846.735,1113.04 849.933,1142.08 853.132,1117.55 856.331,1004.72 
  859.529,925.519 862.728,1012.72 865.926,1249.76 869.125,1070.6 872.324,925.78 875.522,1317.81 878.721,964.285 881.919,985.877 885.118,890.509 888.316,1007.5 
  891.515,969.729 894.714,1253.05 897.912,1193.4 901.111,886.468 904.309,942.98 907.508,913.527 910.707,1008.74 913.905,908.78 917.104,993.3 920.302,1022.68 
  923.501,1012.87 926.699,1110.42 929.898,787.403 933.097,799.925 936.295,873.306 939.494,1049.22 942.692,863.264 945.891,703.429 949.09,888.17 952.288,845.415 
  955.487,733.539 958.685,979.805 961.884,784.021 965.082,858.022 968.281,930.241 971.48,948.067 974.678,949.959 977.877,885.536 981.075,870.045 984.274,730.5 
  987.473,909.136 990.671,999.415 993.87,1013.78 997.068,950.131 1000.27,900.028 1003.47,959.302 1006.66,871.949 1009.86,845.613 1013.06,1006.38 1016.26,895.934 
  1019.46,824.13 1022.66,997.349 1025.86,1064.74 1029.05,988.698 1032.25,780.757 1035.45,882.692 1038.65,808.078 1041.85,1011.13 1045.05,906.75 1048.25,1044.92 
  1051.44,808.054 1054.64,1162.14 1057.84,1142.59 1061.04,912.859 1064.24,908.815 1067.44,842.103 1070.64,741.075 1073.83,1046.8 1077.03,1006.67 1080.23,742.853 
  1083.43,1006.54 1086.63,887.532 1089.83,845.144 1093.03,1189.94 1096.22,1038.67 1099.42,1058.63 1102.62,986.502 1105.82,970.635 1109.02,990.592 1112.22,913.236 
  1115.42,1048.64 1118.61,1028.55 1121.81,886.388 1125.01,1097.42 1128.21,984.365 1131.41,770.958 1134.61,783.234 1137.81,1114.38 1141,873.507 1144.2,871.151 
  1147.4,1057.53 1150.6,800.688 1153.8,785.624 1157,803.159 1160.2,934.285 1163.39,834.939 1166.59,757.221 1169.79,638.269 1172.99,651.708 1176.19,572.499 
  1179.39,667.517 1182.59,549.658 1185.78,855.907 1188.98,617.496 1192.18,473.856 1195.38,688.029 1198.58,629.091 1201.78,635.765 1204.98,417.669 1208.17,538.399 
  1211.37,420.999 1214.57,507.719 1217.77,252.657 1220.97,343.854 1224.17,427.083 1227.37,361.961 1230.56,119.15 1233.76,491.855 1236.96,372.868 1240.16,253.724 
  1243.36,314.992 1246.56,354.924 1249.76,249.269 1252.95,389.433 1256.15,129.869 1259.35,86.6941 1262.55,370.714 1265.75,344.133 1268.95,228.079 1272.15,208.065 
  1275.35,163.366 1278.54,353.432 1281.74,142.215 1284.94,263.755 1288.14,121.765 1291.34,289.32 1294.54,237.861 1297.74,256.61 1300.93,213.477 1304.13,259.83 
  1307.33,214.794 1310.53,126.653 1313.73,371.954 1316.93,146.907 1320.13,433.464 1323.32,272.313 1326.52,390.2 1329.72,208.786 1332.92,255.863 1336.12,405.607 
  1339.32,352.959 1342.52,507.669 1345.71,435.071 1348.91,213.415 1352.11,456.53 1355.31,355.08 1358.51,582.216 1361.71,547.29 1364.91,561.943 1368.1,535.126 
  1371.3,536.539 1374.5,496.24 1377.7,722.624 1380.9,641.789 1384.1,642.99 1387.3,610.339 1390.49,589.938 1393.69,463.934 1396.89,617.772 1400.09,570.62 
  1403.29,608.146 1406.49,823.948 1409.69,911.323 1412.88,696.786 1416.08,783.671 1419.28,678.198 1422.48,871.072 1425.68,726.783 1428.88,834.106 1432.08,834.463 
  1435.27,923.217 1438.47,1043.35 1441.67,893.045 1444.87,878.667 1448.07,894.174 1451.27,881.689 1454.47,914.38 1457.66,1033.25 1460.86,984.587 1464.06,1187.12 
  1467.26,954.227 1470.46,1052.99 1473.66,1239.75 1476.86,859.354 1480.05,1124.16 1483.25,1179.31 1486.45,874.748 1489.65,1063.64 1492.85,904.18 1496.05,933.017 
  1499.25,1085.76 1502.44,948.987 1505.64,930.51 1508.84,1131.22 1512.04,961.814 1515.24,978 1518.44,1058.39 1521.64,1053.16 1524.83,996.965 1528.03,1039.15 
  1531.23,853.828 1534.43,983.323 1537.63,734.126 1540.83,908.265 1544.03,961.148 1547.22,865.047 1550.42,906.242 1553.62,699.632 1556.82,967.195 1560.02,1007.94 
  1563.22,871.153 1566.42,1041.91 1569.61,660.994 1572.81,989.428 1576.01,636.631 1579.21,1045.46 1582.41,827.953 1585.61,741.982 1588.81,907.043 1592,781.427 
  1595.2,868.637 1598.4,819.495 1601.6,856.961 1604.8,865.612 1608,844.997 1611.2,794.133 1614.39,1024.49 1617.59,1122.02 1620.79,870.81 1623.99,973.38 
  1627.19,867.466 1630.39,864.737 1633.59,902.998 1636.78,974.052 1639.98,955.65 1643.18,992.628 1646.38,966.022 1649.58,1054.51 1652.78,965.446 1655.98,893.85 
  1659.18,895.74 1662.37,1007.86 1665.57,1030.06 1668.77,1090.21 1671.97,966.18 1675.17,1059.12 1678.37,993.146 1681.57,922.557 1684.76,1208.54 1687.96,1103.33 
  1691.16,1170.1 1694.36,1088.48 1697.56,1111.39 1700.76,949.879 1703.96,1064.01 1707.15,1036.55 1710.35,1225.63 1713.55,1095.9 1716.75,1034.01 1719.95,1119.23 
  1723.15,1085.25 1726.35,1337.99 1729.54,1070.96 1732.74,1050.74 1735.94,1235.19 1739.14,1132.92 1742.34,1224.51 1745.54,1254.59 1748.74,969.731 1751.93,1051.15 
  1755.13,1095.83 1758.33,1083.55 1761.53,1268.16 1764.73,1078.35 1767.93,1147.04 1771.13,1021.29 1774.32,1070.09 1777.52,1149.1 1780.72,1023.64 1783.92,1101.15 
  1787.12,1328.26 1790.32,969.816 1793.52,983.535 1796.71,1066.05 1799.91,1215.84 1803.11,912.822 1806.31,1094.55 1809.51,954.114 1812.71,964.811 1815.91,1036.62 
  1819.1,834.91 1822.3,867.141 1825.5,851.142 1828.7,763.622 1831.9,749.31 1835.1,885.617 1838.3,851.463 1841.49,823.563 1844.69,686.218 1847.89,813.768 
  1851.09,766.37 1854.29,510.732 1857.49,682.971 1860.69,519.401 1863.88,447.48 1867.08,555.358 1870.28,750.475 1873.48,791.212 1876.68,624.328 1879.88,633.023 
  1883.08,647.687 1886.27,460.801 1889.47,675.845 1892.67,550.964 1895.87,646.06 1899.07,479.863 1902.27,629.518 1905.47,464.548 1908.66,554.275 1911.86,431.421 
  1915.06,532.563 1918.26,582.4 1921.46,463.837 1924.66,408.787 1927.86,391.574 1931.05,372.083 1934.25,669.323 1937.45,580.638 1940.65,514.365 1943.85,561.582 
  1947.05,431.185 1950.25,450.726 1953.44,508.758 1956.64,510.949 1959.84,413.837 1963.04,471.26 1966.24,544.875 1969.44,641.304 1972.64,359.995 1975.83,552.546 
  1979.03,736.142 1982.23,443.211 1985.43,623.341 1988.63,450.622 1991.83,655.029 1995.03,835.839 1998.22,668.086 2001.42,595.02 2004.62,703.421 2007.82,709.432 
  2011.02,774.747 2014.22,866.411 2017.42,681.86 2020.62,655.44 2023.81,933.228 2027.01,911.461 2030.21,880.424 2033.41,861.159 2036.61,1035.59 2039.81,814.182 
  2043.01,1041.44 2046.2,949.963 2049.4,947.709 2052.6,1096.85 2055.8,1046.84 2059,1158.74 2062.2,1132.31 2065.4,1085.04 2068.59,1226.46 2071.79,1001.86 
  2074.99,1161.81 2078.19,1161.85 2081.39,1157.68 2084.59,1198.23 2087.79,1202.28 2090.98,1100.78 2094.18,1119.84 2097.38,1391.83 2100.58,1239.02 2103.78,1232.47 
  2106.98,1150.82 2110.18,1108.36 2113.37,1176.79 2116.57,1138.11 2119.77,1401.69 2122.97,1196.51 2126.17,1189.55 2129.37,1096.93 2132.57,1303.58 2135.76,1217.73 
  2138.96,1087.2 2142.16,1058.02 2145.36,1273.88 2148.56,935.519 2151.76,1132.93 2154.96,1283.94 2158.15,1159.23 2161.35,811.815 2164.55,1240.26 2167.75,960.534 
  2170.95,1196.75 2174.15,1013.87 2177.35,1112.09 2180.54,1047.01 2183.74,975.488 2186.94,1185.48 2190.14,844.81 2193.34,1017 2196.54,1032.08 2199.74,958.801 
  2202.93,951.215 2206.13,993.522 2209.33,975.648 2212.53,764.125 2215.73,1175.5 2218.93,916.28 2222.13,999.897 2225.32,1006.19 2228.52,730.463 2231.72,935.503 
  2234.92,853.194 2238.12,655.251 2241.32,1042.52 2244.52,938.096 2247.71,982.593 2250.91,766.171 2254.11,801.388 2257.31,884.954 2260.51,688.849 2263.71,1003.19 
  2266.91,867.14 2270.1,1025.67 2273.3,864.195 2276.5,808.762 2279.7,1131.62 2282.9,950.087 2286.1,995.655 2289.3,898.879 2292.49,992.814 
  "/>
</svg>
